<?xml version="1.0" standalone="no"?>
<!DOCTYPE svg PUBLIC "-//W3C//DTD SVG 1.1//EN" "http://www.w3.org/Graphics/SVG/1.1/DTD/svg11.dtd" >
<svg xmlns="http://www.w3.org/2000/svg">
<metadata></metadata>
<defs>
<font id="gotham_htf_blackregular" horiz-adv-x="1701" >
<font-face units-per-em="2048" ascent="1638" descent="-410" />
<missing-glyph horiz-adv-x="567" />
<glyph horiz-adv-x="0" />
<glyph horiz-adv-x="682" />
<glyph unicode=" "  horiz-adv-x="567" />
<glyph unicode="&#x09;" horiz-adv-x="567" />
<glyph unicode="&#xa0;" horiz-adv-x="567" />
<glyph unicode="!" horiz-adv-x="663" d="M111 1260v174h442v-174l-119 -793h-205zM129 0v348h406v-348h-406z" />
<glyph unicode="&#x22;" horiz-adv-x="1099" d="M70 698l45 736h417v-11l-260 -725h-202zM594 698l47 736h418v-11l-260 -725h-205z" />
<glyph unicode="#" horiz-adv-x="1445" d="M59 276v330h217l39 230h-188v329h246l45 269h297l-47 -269h260l45 269h297l-45 -269h159v-329h-217l-39 -230h189v-330h-244l-49 -276h-297l49 276h-260l-47 -276h-297l47 276h-160zM563 598h275l41 246h-273z" />
<glyph unicode="$" horiz-adv-x="1363" d="M51 207l185 272q199 -139 380 -168v246q-129 30 -218 66t-153.5 88t-95 123t-30.5 165v5q0 184 128.5 299.5t360.5 132.5v116h213v-122q235 -25 432 -160l-168 -275q-120 85 -274 123v-237q254 -59 371.5 -161t117.5 -286v-4q0 -184 -130.5 -296.5t-352.5 -133.5v-201 h-213v205q-151 15 -294.5 67.5t-258.5 135.5zM479 1030q0 -41 29 -67t110 -48v222q-139 -11 -139 -103v-4zM809 299q137 15 137 104v5q0 42 -29.5 67.5t-107.5 48.5v-225z" />
<glyph unicode="%" horiz-adv-x="1841" d="M72 1065v4q0 162 102.5 273.5t267.5 111.5q164 0 266.5 -111t102.5 -272v-4q0 -162 -104 -273.5t-267 -111.5t-265.5 110.5t-102.5 272.5zM229 0l1106 1434h277l-1106 -1434h-277zM322 1067q0 -69 34.5 -114.5t85.5 -45.5q52 0 85.5 45t33.5 113v4q0 68 -34.5 114 t-86.5 46q-53 0 -85.5 -44.5t-32.5 -113.5v-4zM1030 362v5q0 162 103 273.5t268 111.5q164 0 266 -110.5t102 -272.5v-4q0 -160 -104 -272.5t-266 -112.5t-265.5 111t-103.5 271zM1280 365q0 -67 35 -113.5t86 -46.5q52 0 85.5 44.5t33.5 112.5v5q0 69 -34 114t-87 45 q-55 0 -87 -43.5t-32 -113.5v-4z" />
<glyph unicode="&#x26;" horiz-adv-x="1429" d="M43 389v4q0 271 291 402q-94 134 -94 274v4q0 163 123 276t327 113q192 0 309 -104t117 -264v-4q0 -243 -280 -373l159 -156q66 96 135 227l263 -131q-96 -177 -189 -303l193 -190l-269 -193l-147 150q-192 -146 -426 -146q-225 0 -368.5 111.5t-143.5 302.5zM440 410 q0 -63 47 -102.5t121 -39.5q78 0 170 62l-235 239q-103 -62 -103 -155v-4zM575 1059q0 -72 74 -164q152 67 152 176v4q0 52 -30.5 83.5t-80.5 31.5q-51 0 -83 -35t-32 -92v-4z" />
<glyph unicode="'" horiz-adv-x="581" d="M70 698l45 736h426v-11l-260 -725h-211z" />
<glyph unicode="(" horiz-adv-x="911" d="M90 588q0 154 39 283.5t117 236t186 193t256 163.5l162 -241q-200 -138 -289.5 -286.5t-89.5 -348.5t89.5 -348.5t289.5 -286.5l-162 -242q-147 77 -255.5 164t-186.5 193.5t-117 236t-39 283.5z" />
<glyph unicode=")" horiz-adv-x="911" d="M61 -47q200 138 289.5 286.5t89.5 348.5t-89.5 348.5t-289.5 286.5l162 241q148 -77 256 -163.5t186 -193t117 -236t39 -283.5t-39 -283.5t-117 -236t-186.5 -193.5t-255.5 -164z" />
<glyph unicode="*" horiz-adv-x="870" d="M57 973l260 92l-260 92l111 191l211 -181l-51 271h215l-51 -271l210 181l111 -191l-260 -92l260 -92l-111 -189l-210 181l51 -271h-215l51 271l-211 -181z" />
<glyph unicode="+" horiz-adv-x="1310" d="M131 549v344h346v352h357v-352h346v-344h-346v-352h-357v352h-346z" />
<glyph unicode="," horiz-adv-x="581" d="M41 -188q103 12 155.5 60.5t49.5 131.5h-158v399h406v-325q0 -217 -109 -313.5t-313 -102.5z" />
<glyph unicode="-" horiz-adv-x="835" d="M82 469v342h672v-342h-672z" />
<glyph unicode="." horiz-adv-x="581" d="M88 0v399h406v-399h-406z" />
<glyph unicode="/" horiz-adv-x="1095" d="M-78 -262l907 1896h316l-907 -1896h-316z" />
<glyph unicode="0" horiz-adv-x="1495" d="M84 713v4q0 152 47.5 287.5t132 237t211 161t275.5 59.5q198 0 350.5 -101t231.5 -268.5t79 -371.5v-4q0 -152 -47 -288t-131.5 -237.5t-211 -161t-276.5 -59.5q-199 0 -351.5 101.5t-231 269t-78.5 371.5zM483 717q0 -173 74 -283t193 -110t190.5 108.5t71.5 280.5v4 q0 171 -74.5 282t-192.5 111t-190 -108t-72 -281v-4z" />
<glyph unicode="1" horiz-adv-x="864" d="M16 1325l420 119h289v-1444h-391v1073l-242 -55z" />
<glyph unicode="2" horiz-adv-x="1277" d="M68 0v299l536 410q101 79 142.5 136.5t41.5 121.5q0 67 -43.5 106t-115.5 39q-70 0 -134 -42t-151 -142l-268 223q123 160 253.5 233.5t329.5 73.5q235 0 382 -127t147 -330v-4q0 -84 -20.5 -152t-67 -128t-101.5 -108.5t-143 -112.5l-246 -172h592v-324h-1134z" />
<glyph unicode="3" horiz-adv-x="1271" d="M37 225l250 250q161 -164 342 -164q84 0 134 40t50 106v4q0 69 -60.5 108t-172.5 39h-168l-58 207l330 297h-549v322h1036v-285l-342 -293q81 -18 145.5 -48.5t116.5 -78t80.5 -117.5t28.5 -159v-4q0 -216 -155.5 -347t-397.5 -131q-381 0 -610 254z" />
<glyph unicode="4" horiz-adv-x="1411" d="M27 559l743 885h401v-869h183v-296h-183v-279h-385v279h-694zM444 573h342v412z" />
<glyph unicode="5" horiz-adv-x="1290" d="M39 199l227 266q186 -156 348 -156q98 0 154.5 45.5t56.5 122.5v4q0 76 -58 121t-153 45q-110 0 -229 -72l-235 132l40 727h959v-328h-645l-12 -217q109 51 229 51q99 0 186 -28t156 -82.5t109 -143t40 -201.5v-4q0 -236 -163 -373t-428 -137q-182 0 -322 58.5 t-260 169.5z" />
<glyph unicode="6" horiz-adv-x="1355" d="M84 672v4q0 169 41.5 311t122.5 249t209.5 166.5t292.5 59.5q146 0 258 -38.5t219 -118.5l-187 -281q-73 55 -138 82t-146 27q-121 0 -189 -82t-82 -224q69 52 141.5 81.5t168.5 29.5q128 0 234 -50.5t172.5 -153.5t66.5 -242v-5q0 -156 -77.5 -275t-206 -180t-286.5 -61 q-274 0 -438 164q-176 176 -176 537zM479 467q0 -80 55.5 -133t147.5 -53t145.5 52t53.5 132v4q0 79 -55.5 131.5t-147.5 52.5q-91 0 -145 -51.5t-54 -130.5v-4z" />
<glyph unicode="7" horiz-adv-x="1257" d="M94 1100v334h1104v-299l-633 -1135h-438l631 1100h-664z" />
<glyph unicode="8" horiz-adv-x="1290" d="M55 395v4q0 239 246 344q-197 108 -197 312v4q0 173 151 286t390 113t390 -113t151 -286v-4q0 -204 -197 -312q119 -56 182.5 -136t63.5 -206v-4q0 -190 -165 -306t-425 -116q-171 0 -305 52.5t-209.5 148.5t-75.5 219zM438 434q0 -68 55.5 -115t151.5 -47t151.5 47 t55.5 115v4q0 69 -58 112.5t-149 43.5t-149 -43.5t-58 -112.5v-4zM469 1010q0 -68 49 -113t127 -45q79 0 127.5 44t48.5 112v4q0 62 -48.5 106.5t-127.5 44.5t-127.5 -43.5t-48.5 -105.5v-4z" />
<glyph unicode="9" horiz-adv-x="1355" d="M88 936v4q0 156 74.5 275.5t204 183t292.5 63.5q151 0 253 -41t188 -127q172 -169 172 -530v-4q0 -236 -75.5 -412.5t-226.5 -276.5t-362 -100q-281 0 -499 170l186 275q144 -115 307 -115q120 0 188 78.5t82 220.5q-124 -117 -303 -117q-213 0 -347 122.5t-134 330.5z M473 956q0 -83 56 -135.5t149 -52.5q92 0 146.5 53t54.5 133v4q0 85 -56.5 140t-148.5 55t-146.5 -53.5t-54.5 -138.5v-5z" />
<glyph unicode=":" horiz-adv-x="602" d="M98 0v399h406v-399h-406zM98 709v399h406v-399h-406z" />
<glyph unicode=";" horiz-adv-x="602" d="M51 -193q103 12 155.5 61t49.5 132h-158v399h406v-325q0 -217 -109 -313.5t-313 -102.5zM98 709v399h406v-399h-406z" />
<glyph unicode="&#x3c;" horiz-adv-x="1318" d="M133 539v362l1018 406v-363l-670 -223l670 -223v-365z" />
<glyph unicode="=" horiz-adv-x="1308" d="M152 274v342h1005v-342h-1005zM152 825v342h1005v-342h-1005z" />
<glyph unicode="&#x3e;" horiz-adv-x="1318" d="M168 133v363l670 223l-670 223v365l1018 -406v-362z" />
<glyph unicode="?" horiz-adv-x="1105" d="M20 1241q215 215 531 215q229 0 370.5 -116.5t141.5 -313.5v-4q0 -94 -29.5 -166.5t-85.5 -122t-125 -81.5t-159 -54l-25 -131h-248l-51 342l16 18q173 15 247.5 55t74.5 109v2q0 53 -40.5 83t-113.5 30q-148 0 -299 -135zM307 0v348h404v-348h-404z" />
<glyph unicode="@" horiz-adv-x="1976" d="M92 563q0 183 70 348.5t189.5 286.5t288.5 192.5t359 71.5q186 0 351.5 -65.5t281 -174.5t183 -254.5t67.5 -301.5q0 -134 -36.5 -241.5t-98 -173t-139 -100t-162.5 -34.5q-226 0 -316 155q-131 -151 -301 -151q-162 0 -268 113t-106 298q0 144 61.5 267t166 194.5 t224.5 71.5q179 0 275 -152l24 125l318 -49l-94 -528q-9 -70 -9 -90q0 -53 36 -87t97 -34q104 0 173 109.5t69 306.5q0 141 -59.5 271t-163 228t-253.5 156.5t-321 58.5q-175 0 -329 -64.5t-261 -174t-169 -260t-62 -318.5q0 -170 61.5 -319.5t169.5 -258.5t263 -172 t334 -63q147 0 264 33.5t237 103.5l41 -65q-253 -154 -542 -154q-156 0 -297.5 45t-253 127.5t-193.5 193t-126 246.5t-44 283zM782 557q0 -75 42 -117.5t108 -42.5q82 0 139 69t57 167q0 71 -41.5 113t-107.5 42q-83 0 -140 -67t-57 -164z" />
<glyph unicode="A" horiz-adv-x="1628" d="M12 0l611 1444h383l610 -1444h-426l-105 256h-553l-102 -256h-418zM649 565h322l-160 408z" />
<glyph unicode="B" horiz-adv-x="1464" d="M127 0v1434h735q262 0 391 -129q93 -93 93 -232v-4q0 -223 -222 -319q139 -45 212 -128.5t73 -222.5v-4q0 -185 -143.5 -290t-399.5 -105h-739zM514 319h307q91 0 141 34.5t50 97.5v4q0 60 -49 94.5t-146 34.5h-303v-265zM514 862h250q188 0 188 125v4q0 59 -46 91 t-134 32h-258v-252z" />
<glyph unicode="C" horiz-adv-x="1495" d="M78 713v4q0 155 57.5 292.5t157 237t240.5 157.5t301 58q392 0 608 -299l-299 -231q-66 82 -141 125t-173 43q-149 0 -245.5 -110t-96.5 -269v-4q0 -163 96.5 -273t245.5 -110q105 0 178.5 43.5t145.5 130.5l299 -213q-73 -100 -154.5 -168t-205 -112t-275.5 -44 q-203 0 -372 95.5t-268 266t-99 380.5z" />
<glyph unicode="D" horiz-adv-x="1566" d="M127 0v1434h553q189 0 342 -52.5t255 -146.5t157 -224.5t55 -285.5v-4q0 -155 -55.5 -287t-158.5 -228.5t-258 -151t-345 -54.5h-545zM524 352h162q181 0 288 96t107 267v4q0 170 -107 266t-288 96h-162v-729z" />
<glyph unicode="E" horiz-adv-x="1366" d="M127 0v1434h1153v-338h-760v-217h688v-314h-688v-227h770v-338h-1163z" />
<glyph unicode="F" horiz-adv-x="1327" d="M127 0v1434h1147v-349h-750v-243h678v-330h-678v-512h-397z" />
<glyph unicode="G" horiz-adv-x="1574" d="M78 713v4q0 155 58.5 292.5t160.5 237t245.5 157.5t307.5 58q182 0 322 -53t260 -156l-234 -280q-80 68 -162 101.5t-184 33.5q-155 0 -261 -114t-106 -279v-4q0 -173 109.5 -285.5t279.5 -112.5q139 0 230 60v174h-283v291h660v-645q-270 -222 -623 -222 q-165 0 -309.5 55.5t-248 152.5t-163 235.5t-59.5 298.5z" />
<glyph unicode="H" horiz-adv-x="1558" d="M127 0v1434h397v-537h510v537h398v-1434h-398v545h-510v-545h-397z" />
<glyph unicode="I" horiz-adv-x="669" d="M135 0v1434h400v-1434h-400z" />
<glyph unicode="J" horiz-adv-x="1155" d="M8 217l256 242q56 -67 108 -100t115 -33q77 0 120.5 51t43.5 149v908h396v-910q0 -261 -142 -403q-146 -146 -393 -146q-327 0 -504 242z" />
<glyph unicode="K" horiz-adv-x="1495" d="M127 0v1434h397v-582l494 582h471l-543 -617l561 -817h-477l-360 532l-146 -161v-371h-397z" />
<glyph unicode="L" horiz-adv-x="1261" d="M127 0v1434h397v-1086h695v-348h-1092z" />
<glyph unicode="M" horiz-adv-x="1777" d="M127 0v1434h420l342 -555l342 555h420v-1434h-396v823l-366 -561h-8l-365 557v-819h-389z" />
<glyph unicode="N" horiz-adv-x="1607" d="M127 0v1434h371l589 -758v758h394v-1434h-348l-613 786v-786h-393z" />
<glyph unicode="O" d="M78 713v4q0 152 59.5 289.5t161.5 237.5t246 159t307 59t306.5 -58t245 -157.5t160 -236.5t58.5 -289v-4q0 -152 -59.5 -290t-161.5 -238t-246 -159t-307 -59t-306.5 58.5t-245 158t-160 236.5t-58.5 289zM485 717q0 -159 104 -273t263 -114q161 0 263 112t102 271v4 q0 159 -104 273t-265 114q-159 0 -261 -112t-102 -271v-4z" />
<glyph unicode="P" horiz-adv-x="1378" d="M127 0v1434h614q274 0 435 -134t161 -370v-4q0 -165 -80.5 -283t-218 -175.5t-317.5 -57.5h-197v-410h-397zM524 721h189q105 0 166 50.5t61 135.5v4q0 91 -60.5 140t-168.5 49h-187v-379z" />
<glyph unicode="Q" d="M78 713v4q0 152 59.5 289.5t161.5 237.5t246 159t307 59t306.5 -58t245 -157.5t160 -236.5t58.5 -289v-4q0 -231 -127 -412l147 -125l-200 -223l-158 141q-195 -127 -436 -127q-163 0 -306.5 58.5t-245 158t-160 236.5t-58.5 289zM485 713q0 -160 103.5 -274.5 t263.5 -114.5q75 0 145 26l-198 170l200 225l195 -176q25 67 25 140v4q0 161 -104.5 276t-266.5 115q-159 0 -261 -113.5t-102 -273.5v-4z" />
<glyph unicode="R" horiz-adv-x="1472" d="M127 0v1434h678q314 0 467 -156q127 -124 127 -334v-4q0 -159 -78 -270t-217 -170l342 -500h-459l-289 434h-4h-170v-434h-397zM524 745h262q100 0 156.5 45.5t56.5 124.5v5q0 83 -56.5 126.5t-158.5 43.5h-260v-345z" />
<glyph unicode="S" horiz-adv-x="1335" d="M18 213l222 264q215 -172 465 -172q79 0 121 26t42 72v5q0 46 -49.5 75t-191.5 62q-73 17 -127 31.5t-113.5 36.5t-101.5 45.5t-81.5 57.5t-64 73.5t-39 91.5t-14.5 114v4q0 203 150.5 331t404.5 128q353 0 590 -190l-199 -281q-201 141 -401 141q-69 0 -106.5 -26 t-37.5 -66v-4q0 -50 49.5 -77.5t198.5 -61.5q132 -29 224.5 -63.5t165.5 -86t109 -125.5t36 -172v-4q0 -217 -158 -342t-422 -125q-194 0 -368 60.5t-304 177.5z" />
<glyph unicode="T" horiz-adv-x="1351" d="M47 1085v349h1258v-349h-431v-1085h-397v1085h-430z" />
<glyph unicode="U" horiz-adv-x="1552" d="M109 629v805h403v-797q0 -151 70 -228t194 -77t194 74t70 221v807h404v-795q0 -171 -47 -299t-136 -208t-211.5 -119.5t-277.5 -39.5q-315 0 -489 163.5t-174 492.5z" />
<glyph unicode="V" horiz-adv-x="1556" d="M12 1434h445l325 -908l326 908h436l-581 -1444h-369z" />
<glyph unicode="W" horiz-adv-x="2287" d="M31 1434h420l249 -830l277 834h342l276 -834l250 830h412l-479 -1444h-346l-289 825l-287 -825h-346z" />
<glyph unicode="X" horiz-adv-x="1499" d="M23 0l491 729l-471 705h457l254 -404l256 404h446l-471 -701l492 -733h-457l-275 432l-276 -432h-446z" />
<glyph unicode="Y" horiz-adv-x="1480" d="M-4 1434h453l294 -523l297 523h445l-545 -891v-543h-399v537z" />
<glyph unicode="Z" horiz-adv-x="1429" d="M82 0v289l719 809h-695v336h1244v-289l-719 -809h719v-336h-1268z" />
<glyph unicode="[" horiz-adv-x="935" d="M135 -266v1700h709v-265h-361v-1171h361v-264h-709z" />
<glyph unicode="\" horiz-adv-x="1095" d="M-49 1634h315l908 -1896h-316z" />
<glyph unicode="]" horiz-adv-x="935" d="M92 -2h361v1171h-361v265h709v-1700h-709v264z" />
<glyph unicode="^" horiz-adv-x="1024" d="M86 1010l295 422h262l295 -422h-272l-156 198l-156 -198h-268z" />
<glyph unicode="_" horiz-adv-x="1228" d="M-4 -90h1237v-238h-1237v238z" />
<glyph unicode="`" horiz-adv-x="1024" d="M180 1464l363 117l213 -379h-275z" />
<glyph unicode="a" horiz-adv-x="1226" d="M49 317v5q0 168 117 258t317 90q149 0 267 -43v18q0 180 -222 180q-152 0 -305 -61l-80 274q211 86 449 86q287 0 422 -135q119 -116 119 -352v-637h-385v115q-127 -140 -326 -140q-164 0 -268.5 90.5t-104.5 251.5zM424 340q0 -56 38 -88.5t99 -32.5q86 0 139.5 50 t53.5 132v52q-68 28 -152 28t-131 -37.5t-47 -99.5v-4z" />
<glyph unicode="b" horiz-adv-x="1384" d="M104 0v1495h390v-534q67 81 144 126.5t191 45.5q99 0 188.5 -40.5t156.5 -113t107 -182t40 -238.5v-4q0 -131 -39.5 -241.5t-107 -184t-156.5 -114t-187 -40.5q-115 0 -194.5 43t-142.5 117v-135h-390zM485 553q0 -109 65.5 -180.5t160.5 -71.5q97 0 162 70.5t65 181.5v4 q0 108 -65.5 179t-161.5 71q-95 0 -160.5 -71t-65.5 -179v-4z" />
<glyph unicode="c" horiz-adv-x="1165" d="M59 549v4q0 156 74.5 287.5t211.5 210.5t308 79q318 0 473 -247l-264 -197q-42 59 -90.5 88t-116.5 29q-93 0 -155 -72t-62 -174v-4q0 -108 62 -180t159 -72q65 0 114.5 28.5t98.5 86.5l261 -189q-170 -254 -494 -254q-163 0 -297 78.5t-208.5 210.5t-74.5 287z" />
<glyph unicode="d" horiz-adv-x="1384" d="M63 549v4q0 131 39.5 241.5t106.5 184t155.5 114t186.5 40.5q115 0 195 -43t145 -117v522h389v-1495h-389v147q-67 -81 -145.5 -126.5t-192.5 -45.5q-98 0 -187 40.5t-156.5 113t-107 182t-39.5 238.5zM444 553q0 -109 66.5 -180.5t161.5 -71.5t160 71.5t65 180.5v4 q0 108 -65 179t-160 71t-161.5 -70.5t-66.5 -179.5v-4z" />
<glyph unicode="e" horiz-adv-x="1239" d="M59 549v4q0 120 41.5 227t114.5 184.5t177.5 123t225.5 45.5q139 0 248 -48.5t176 -133t101.5 -192.5t34.5 -233q0 -53 -2 -80h-742q23 -89 85.5 -135.5t154.5 -46.5q130 0 246 113l215 -178q-177 -226 -482 -226q-262 0 -428 159.5t-166 416.5zM428 645h385 q-11 93 -62 147t-130 54q-75 0 -126.5 -54.5t-66.5 -146.5z" />
<glyph unicode="f" horiz-adv-x="827" d="M45 797v305h129v24q0 193 94 287q96 96 289 96q152 0 254 -30v-275q-74 23 -145 23q-111 0 -111 -105v-26h254v-299h-248v-797h-387v797h-129z" />
<glyph unicode="g" horiz-adv-x="1384" d="M63 612v4q0 116 39 214.5t105 164t153 102t183 36.5q115 0 195.5 -40.5t152.5 -115.5v131h389v-842q0 -299 -143 -442q-156 -156 -488 -156q-307 0 -555 127l125 258q188 -104 387 -104q145 0 218 69.5t73 202.5v43q-67 -77 -148.5 -121.5t-193.5 -44.5q-102 0 -191.5 36 t-156.5 101.5t-105.5 163t-38.5 213.5zM444 610q0 -92 64 -152.5t164 -60.5q98 0 161.5 61t63.5 154v4q0 92 -63.5 152.5t-161.5 60.5q-99 0 -163.5 -61t-64.5 -154v-4z" />
<glyph unicode="h" horiz-adv-x="1298" d="M104 0v1495h390v-539q139 177 331 177q176 0 276.5 -109t100.5 -299v-725h-389v600q0 89 -42.5 137.5t-113.5 48.5q-73 0 -118 -49t-45 -137v-600h-390z" />
<glyph unicode="i" horiz-adv-x="614" d="M104 1208v287h406v-287h-406zM113 0v1108h389v-1108h-389z" />
<glyph unicode="j" horiz-adv-x="618" d="M-53 -61q16 -2 51 -2q59 0 87 29.5t28 99.5v1042h389v-1059q0 -204 -99.5 -293.5t-296.5 -89.5q-41 0 -159 15v258zM104 1208v287h406v-287h-406z" />
<glyph unicode="k" horiz-adv-x="1234" d="M104 0v1495h390v-758l301 371h440l-385 -444l395 -664h-428l-223 377l-100 -117v-260h-390z" />
<glyph unicode="l" horiz-adv-x="614" d="M113 0v1495h389v-1495h-389z" />
<glyph unicode="m" horiz-adv-x="1988" d="M104 0v1108h390v-152q139 177 329 177q110 0 193 -47t127 -134q77 89 165.5 135t204.5 46q178 0 278.5 -106.5t100.5 -299.5v-727h-389v602q0 89 -40.5 136.5t-110.5 47.5q-71 0 -115.5 -48t-44.5 -136v-602h-389v602q0 89 -41 136.5t-111 47.5q-71 0 -114 -48t-43 -136 v-602h-390z" />
<glyph unicode="n" horiz-adv-x="1298" d="M104 0v1108h390v-156q142 181 331 181q176 0 276.5 -109t100.5 -299v-725h-389v600q0 89 -42.5 137.5t-113.5 48.5q-73 0 -118 -49t-45 -137v-600h-390z" />
<glyph unicode="o" horiz-adv-x="1343" d="M59 549v4q0 117 46.5 223.5t127 185t195.5 125t246 46.5q173 0 313.5 -78t218.5 -210t78 -288v-4q0 -117 -46.5 -223.5t-126.5 -185t-195 -125t-246 -46.5q-130 0 -244.5 46t-194.5 123.5t-126 183.5t-46 223zM438 553q0 -103 67.5 -176.5t168.5 -73.5q103 0 167 71.5 t64 174.5v4q0 103 -67 176.5t-168 73.5q-103 0 -167.5 -71.5t-64.5 -174.5v-4z" />
<glyph unicode="p" horiz-adv-x="1384" d="M104 -328v1436h390v-147q67 81 144 126.5t191 45.5q99 0 188.5 -40.5t156.5 -113t107 -182t40 -238.5v-4q0 -131 -39.5 -241.5t-107 -184t-156.5 -114t-187 -40.5q-115 0 -194.5 43t-142.5 117v-463h-390zM485 553q0 -109 65.5 -180.5t160.5 -71.5q97 0 162 70.5 t65 181.5v4q0 108 -65.5 179t-161.5 71q-95 0 -160.5 -71t-65.5 -179v-4z" />
<glyph unicode="q" horiz-adv-x="1384" d="M63 549v4q0 131 39.5 241.5t106.5 184t155.5 114t186.5 40.5q115 0 195 -43t145 -117v135h389v-1436h-389v475q-67 -81 -145.5 -126.5t-192.5 -45.5q-98 0 -187 40.5t-156.5 113t-107 182t-39.5 238.5zM444 553q0 -109 66.5 -180.5t161.5 -71.5t160 71.5t65 180.5v4 q0 108 -65 179t-160 71t-161.5 -70.5t-66.5 -179.5v-4z" />
<glyph unicode="r" horiz-adv-x="876" d="M104 0v1108h390v-223q100 241 330 241h20v-409h-33q-317 0 -317 -373v-344h-390z" />
<glyph unicode="s" horiz-adv-x="1052" d="M20 139l146 236q192 -127 381 -127q98 0 98 59v4q0 30 -38.5 48.5t-139.5 46.5q-73 19 -125.5 37.5t-106.5 47.5t-87 64.5t-53.5 87.5t-20.5 117v4q0 173 123 269.5t321 96.5q122 0 242 -34t215 -95l-133 -245q-86 47 -174 74.5t-154 27.5q-43 0 -66.5 -14.5t-23.5 -38.5 v-4q0 -30 39.5 -49.5t140.5 -49.5q73 -20 125.5 -39.5t106.5 -49t87 -64.5t53.5 -85.5t20.5 -113.5v-4q0 -179 -122 -275t-330 -96q-297 0 -525 164z" />
<glyph unicode="t" horiz-adv-x="882" d="M41 795v313h131v281h389v-281h258v-313h-258v-375q0 -58 26 -84.5t81 -26.5q71 0 147 37v-305q-115 -64 -270 -64q-182 0 -277.5 87.5t-95.5 279.5v451h-131z" />
<glyph unicode="u" horiz-adv-x="1298" d="M96 383v725h389v-600q0 -89 43 -137.5t115 -48.5q71 0 116.5 49t45.5 137v600h389v-1108h-389v152q-139 -177 -332 -177q-176 0 -276.5 109t-100.5 299z" />
<glyph unicode="v" horiz-adv-x="1280" d="M20 1108h410l213 -647l213 647h404l-443 -1116h-354z" />
<glyph unicode="w" horiz-adv-x="1763" d="M25 1108h381l145 -557l170 561h321l172 -565l150 561h375l-342 -1116h-336l-180 575l-185 -575h-334z" />
<glyph unicode="x" horiz-adv-x="1206" d="M16 0l373 559l-366 549h419l164 -272l164 272h412l-365 -547l373 -561h-418l-172 285l-174 -285h-410z" />
<glyph unicode="y" horiz-adv-x="1282" d="M23 1108h407l221 -668l209 668h400l-406 -1081q-73 -197 -166 -279t-256 -82q-184 0 -356 96l121 273q99 -60 170 -60q58 0 90 45z" />
<glyph unicode="z" horiz-adv-x="1153" d="M66 0v256l512 543h-494v309h1010v-256l-514 -543h514v-309h-1028z" />
<glyph unicode="{" horiz-adv-x="1003" d="M70 459v258h32q126 0 184 44t58 157q0 18 -3 77t-3 74q0 116 49.5 192.5t169 127.5t322.5 75l59 -227q-109 -24 -164 -54.5t-72.5 -69.5t-17.5 -107q0 -16 3 -69t3 -75q0 -110 -57 -176.5t-172 -97.5q115 -31 172 -98t57 -177q0 -22 -3 -74t-3 -69q0 -68 17.5 -107 t72.5 -69.5t164 -54.5l-59 -228q-203 24 -322.5 75t-169 127.5t-49.5 192.5q0 15 3 74.5t3 77.5q0 113 -58 157t-184 44h-32z" />
<glyph unicode="|" horiz-adv-x="727" d="M215 -262v1896h297v-1896h-297z" />
<glyph unicode="}" horiz-adv-x="1003" d="M66 -61q82 18 132 38t77 49t35.5 61t8.5 83q0 17 -3 69t-3 74q0 110 57.5 177t172.5 98q-115 31 -172.5 97.5t-57.5 176.5q0 22 3 75t3 69q0 51 -8.5 83t-35.5 61t-77 49t-132 38l59 227q203 -24 322.5 -75t169 -127.5t49.5 -192.5q0 -15 -3.5 -74t-3.5 -77 q0 -113 58 -157t184 -44h33v-258h-33q-126 0 -184 -44t-58 -157q0 -18 3.5 -77.5t3.5 -74.5q0 -116 -49.5 -192.5t-169 -127.5t-322.5 -75z" />
<glyph unicode="~" horiz-adv-x="1034" d="M84 502q35 157 94 231t160 74q69 0 181 -40t138 -40q40 0 61.5 21t43.5 73l188 -51q-35 -157 -94 -231t-160 -74q-68 0 -181 40t-140 40q-40 0 -60.5 -21t-42.5 -73z" />
<glyph unicode="&#xa1;" horiz-adv-x="663" d="M111 0v174l118 793h205l119 -793v-174h-442zM129 1085v349h406v-349h-406z" />
<glyph unicode="&#xa2;" horiz-adv-x="1177" d="M66 723v4q0 159 72 288.5t205 206.5t304 81l25 143h235l-30 -178q165 -61 258 -199l-238 -182q-46 56 -96 82l-94 -516q108 14 194 116l236 -172q-161 -235 -459 -243l-29 -166h-235l35 200q-172 59 -277.5 205t-105.5 330zM403 727q0 -82 30 -144t85 -96l92 519 q-92 -13 -149.5 -92t-57.5 -183v-4z" />
<glyph unicode="&#xa3;" horiz-adv-x="1308" d="M90 0v236l154 59v244h-154v278h154v105q0 254 141 395t391 141q293 0 477 -207l-241 -264q-96 117 -209 117q-76 0 -120 -48.5t-44 -133.5v-105h442v-278h-442v-226h600v-313h-1149z" />
<glyph unicode="&#xa4;" horiz-adv-x="1396" d="M76 457v213h139q-2 14 -2 43v4q0 37 2 55h-139v213h172q27 102 81 188t130.5 151t180.5 101.5t224 36.5q311 0 492 -231l-252 -236q-99 127 -238 127q-76 0 -133 -37.5t-90 -105.5h320v-207h-365q-2 -16 -2 -51v-4q0 -31 2 -47h365v-207h-324q73 -152 235 -152 q74 0 130.5 34t111.5 101l246 -231q-188 -244 -500 -244q-243 0 -404.5 132t-215.5 354h-166z" />
<glyph unicode="&#xa5;" horiz-adv-x="1449" d="M8 1434h451l270 -471l270 471h443l-428 -650h284v-245h-376v-103h376v-246h-376v-190h-394v190h-376v246h376v103h-376v245h282z" />
<glyph unicode="&#xa7;" horiz-adv-x="1282" d="M86 694v4q0 159 186 226q-96 74 -96 202v4q0 144 123 237t350 93q147 0 275.5 -45t210.5 -117l-158 -223q-167 121 -336 121q-111 0 -111 -61v-5q0 -28 44.5 -48.5t154.5 -43.5q87 -19 148 -36t126 -43t104 -55.5t64 -71.5t25 -93v-4q0 -158 -186 -225q96 -73 96 -201v-4 q0 -144 -122.5 -238t-350.5 -94q-147 0 -275.5 45t-210.5 117l158 223q78 -56 166 -88t170 -32q111 0 111 61v4q0 29 -46 49.5t-153 42.5q-86 19 -148 36.5t-126 43.5t-103.5 55.5t-64.5 71t-25 92.5zM383 750q0 -32 51 -55.5t156 -49.5q145 -37 203 -37q47 0 75.5 19 t28.5 53v4q0 32 -50.5 55.5t-156.5 48.5q-142 37 -203 37q-47 0 -75.5 -18.5t-28.5 -52.5v-4z" />
<glyph unicode="&#xa8;" horiz-adv-x="1024" d="M119 1202v293h338v-293h-338zM567 1202v293h338v-293h-338z" />
<glyph unicode="&#xa9;" horiz-adv-x="1699" d="M109 713v4q0 149 58 286t157 238t237 161t291 60t290.5 -59.5t235.5 -159.5t155.5 -236.5t57.5 -285.5v-4q0 -149 -58 -286.5t-157 -238t-237 -161t-291 -60.5t-290.5 59.5t-235.5 160t-155.5 237t-57.5 285.5zM195 713q0 -134 50 -255.5t136 -210.5t208 -141.5 t259 -52.5q138 0 260.5 53t209 143t137 212t50.5 256v4q0 179 -84.5 330t-235 240t-333.5 89q-138 0 -260.5 -53t-209 -142.5t-137 -211.5t-50.5 -256v-4zM449 723v4q0 111 52 204t148 148.5t217 55.5q115 0 194.5 -42t137.5 -120l-166 -131q-75 92 -172 92 q-80 0 -132 -59.5t-52 -145.5v-4q0 -87 51.5 -146t132.5 -59q57 0 96.5 23.5t79.5 70.5l168 -118q-63 -85 -144 -131t-200 -46q-178 0 -294.5 116t-116.5 288z" />
<glyph unicode="&#xaa;" horiz-adv-x="798" d="M84 553v158h612v-158h-612zM90 999v5q0 93 64.5 141.5t175.5 48.5q78 0 145 -23v9q0 100 -123 100q-72 0 -168 -35l-43 152q113 47 246 47q158 0 234 -76q65 -62 65 -194v-349h-213v66q-68 -78 -178 -78q-91 0 -148 49t-57 137zM297 1014q0 -30 20.5 -48t53.5 -18 q46 0 76 28t30 73v26q-49 17 -84 17q-44 0 -70 -20.5t-26 -53.5v-4z" />
<glyph unicode="&#xab;" horiz-adv-x="1292" d="M61 500v98l328 438l281 -137l-267 -350l267 -348l-281 -140zM592 541v16l360 479l279 -137l-266 -350l266 -348l-279 -140z" />
<glyph unicode="&#xad;" horiz-adv-x="835" d="M82 469v342h672v-342h-672z" />
<glyph unicode="&#xae;" horiz-adv-x="1699" d="M109 713v4q0 149 58 286t157 238t237 161t291 60t290.5 -59.5t235.5 -159.5t155.5 -236.5t57.5 -285.5v-4q0 -149 -58 -286.5t-157 -238t-237 -161t-291 -60.5t-290.5 59.5t-235.5 160t-155.5 237t-57.5 285.5zM195 713q0 -134 50 -255.5t136 -210.5t208 -141.5 t259 -52.5q138 0 260.5 53t209 143t137 212t50.5 256v4q0 179 -84.5 330t-235 240t-333.5 89q-138 0 -260.5 -53t-209 -142.5t-137 -211.5t-50.5 -256v-4zM524 344v789h367q177 0 266 -89q68 -68 68 -180v-4q0 -174 -162 -242l188 -274h-252l-159 240h-4h-93v-240h-219z M743 754h144q57 0 88 24.5t31 67.5v4q0 46 -32 70t-89 24h-142v-190z" />
<glyph unicode="&#xaf;" horiz-adv-x="1024" d="M127 1212v238h770v-238h-770z" />
<glyph unicode="&#xb0;" horiz-adv-x="966" d="M111 1081v4q0 149 111 257t261 108q149 0 261 -108.5t112 -256.5v-4q0 -148 -110.5 -254t-262.5 -106t-262 106t-110 254zM311 1081q0 -71 49.5 -121.5t122.5 -50.5t122.5 50.5t49.5 121.5v4q0 72 -50.5 123.5t-121.5 51.5q-72 0 -122 -51.5t-50 -123.5v-4z" />
<glyph unicode="&#xb1;" horiz-adv-x="1265" d="M33 225l248 244q162 -162 348 -162q89 0 140.5 38.5t51.5 98.5v5q0 124 -229 124h-150v299h146q103 0 153 34t50 91v4q0 56 -49 90.5t-132 34.5q-145 0 -286 -155l-246 229q106 125 240 193.5t327 68.5q236 0 382.5 -108.5t146.5 -274.5v-4q0 -232 -216 -332 q252 -85 252 -321v-4q0 -196 -151 -321.5t-410 -125.5q-380 0 -616 254z" />
<glyph unicode="&#xb4;" horiz-adv-x="1024" d="M268 1202l213 379l363 -117l-301 -262h-275z" />
<glyph unicode="&#xb5;" d="M78 713v4q0 152 59.5 289.5t161.5 237.5t246 159t307 59t306.5 -58t245 -157.5t160 -236.5t58.5 -289v-4q0 -146 -53.5 -277.5t-151.5 -230.5l359 -369v-20h-531l-184 180q-115 -27 -213 -27q-163 0 -306.5 58t-245 157t-160 236t-58.5 289zM485 717q0 -159 104 -273 t263 -114q161 0 263 112t102 271v4q0 159 -104 273t-265 114q-159 0 -261 -112t-102 -271v-4z" />
<glyph unicode="&#xb6;" horiz-adv-x="1220" d="M45 936v4q0 234 162 364t438 130h449v-1434h-400v451h-43q-272 0 -439 127.5t-167 357.5z" />
<glyph unicode="&#xb7;" horiz-adv-x="581" d="M88 440v400h406v-400h-406z" />
<glyph unicode="&#xb8;" horiz-adv-x="1024" d="M223 -223l189 254h256l-136 -385z" />
<glyph unicode="&#xba;" horiz-adv-x="798" d="M68 1122v4q0 133 95 225.5t238 92.5q141 0 235.5 -91t94.5 -223v-4q0 -133 -95.5 -225t-238.5 -92q-141 0 -235 90.5t-94 222.5zM104 553v158h590v-158h-590zM276 1126q0 -58 35 -96.5t90 -38.5t88 37t33 94v4q0 58 -35 98t-90 40q-54 0 -87.5 -38.5t-33.5 -95.5v-4z" />
<glyph unicode="&#xbb;" horiz-adv-x="1292" d="M61 199l267 350l-267 348l281 139l358 -479v-16l-358 -480zM625 199l266 350l-266 348l278 139l328 -438v-98l-328 -439z" />
<glyph unicode="&#xbf;" horiz-adv-x="1105" d="M45 408v4q0 94 29.5 166.5t85 122t124.5 81.5t160 54l23 131h248l53 -342l-18 -19q-173 -15 -247.5 -55t-74.5 -109v-2q0 -53 41.5 -82.5t114.5 -29.5q146 0 297 135l206 -270q-216 -216 -532 -216q-227 0 -368.5 117t-141.5 314zM395 1085v349h406v-349h-406z" />
<glyph unicode="&#xc0;" horiz-adv-x="1628" d="M12 0l611 1444h383l610 -1444h-426l-105 256h-553l-102 -256h-418zM401 1792l363 117l213 -379h-275zM649 565h322l-160 408z" />
<glyph unicode="&#xc1;" horiz-adv-x="1628" d="M12 0l611 1444h383l610 -1444h-426l-105 256h-553l-102 -256h-418zM649 565h322l-160 408zM653 1530l213 379l363 -117l-301 -262h-275z" />
<glyph unicode="&#xc2;" horiz-adv-x="1628" d="M12 0l611 1444h383l610 -1444h-426l-105 256h-553l-102 -256h-418zM395 1530l262 338h316l262 -338h-250l-172 125l-172 -125h-246zM649 565h322l-160 408z" />
<glyph unicode="&#xc3;" horiz-adv-x="1628" d="M12 0l611 1444h383l610 -1444h-426l-105 256h-553l-102 -256h-418zM383 1567q33 157 92 231t162 74q69 0 181 -40t138 -40q40 0 61.5 21t43.5 73l186 -51q-33 -157 -92 -231t-162 -74q-69 0 -181 40t-138 40q-40 0 -61.5 -21t-43.5 -73zM649 565h322l-160 408z" />
<glyph unicode="&#xc4;" horiz-adv-x="1628" d="M12 0l611 1444h383l610 -1444h-426l-105 256h-553l-102 -256h-418zM422 1530v293h338v-293h-338zM649 565h322l-160 408zM870 1530v293h338v-293h-338z" />
<glyph unicode="&#xc5;" horiz-adv-x="1628" d="M12 0l594 1407q-63 69 -63 158v4q0 105 81.5 181.5t190.5 76.5q108 0 189 -76.5t81 -181.5v-4q0 -89 -63 -158l594 -1407h-426l-105 256h-553l-102 -256h-418zM649 565h322l-160 408zM678 1565q0 -56 40 -95.5t97 -39.5q55 0 95 40t40 95v4q0 54 -40 93.5t-95 39.5 q-57 0 -97 -39.5t-40 -93.5v-4z" />
<glyph unicode="&#xc6;" horiz-adv-x="2177" d="M-10 0l758 1434h1341v-338h-715v-217h643v-314h-643v-227h725v-338h-1112v256h-463l-133 -256h-401zM684 565h303v543h-24z" />
<glyph unicode="&#xc7;" horiz-adv-x="1495" d="M78 713v4q0 155 57.5 292.5t157 237t240.5 157.5t301 58q392 0 608 -299l-299 -231q-66 82 -141 125t-173 43q-149 0 -245.5 -110t-96.5 -269v-4q0 -163 96.5 -273t245.5 -110q105 0 178.5 43.5t145.5 130.5l299 -213q-101 -139 -233.5 -221.5t-323.5 -98.5l-115 -329 l-309 131l160 217q-244 61 -398.5 257t-154.5 462z" />
<glyph unicode="&#xc8;" horiz-adv-x="1366" d="M127 0v1434h1153v-338h-760v-217h688v-314h-688v-227h770v-338h-1163zM340 1792l362 117l213 -379h-274z" />
<glyph unicode="&#xc9;" horiz-adv-x="1366" d="M127 0v1434h1153v-338h-760v-217h688v-314h-688v-227h770v-338h-1163zM516 1530l213 379l363 -117l-301 -262h-275z" />
<glyph unicode="&#xca;" horiz-adv-x="1366" d="M127 0v1434h1153v-338h-760v-217h688v-314h-688v-227h770v-338h-1163zM287 1530l262 338h315l262 -338h-249l-172 125l-173 -125h-245z" />
<glyph unicode="&#xcb;" horiz-adv-x="1366" d="M127 0v1434h1153v-338h-760v-217h688v-314h-688v-227h770v-338h-1163zM313 1530v293h338v-293h-338zM762 1530v293h338v-293h-338z" />
<glyph unicode="&#xcc;" horiz-adv-x="669" d="M-84 1792l363 117l213 -379h-275zM135 0v1434h400v-1434h-400z" />
<glyph unicode="&#xcd;" horiz-adv-x="669" d="M135 0v1434h400v-1434h-400zM178 1530l213 379l363 -117l-301 -262h-275z" />
<glyph unicode="&#xce;" horiz-adv-x="669" d="M-86 1530l264 338h316l262 -338h-250l-172 125l-172 -125h-248zM135 0v1434h400v-1434h-400z" />
<glyph unicode="&#xcf;" horiz-adv-x="669" d="M-59 1530v293h340v-293h-340zM135 0v1434h400v-1434h-400zM391 1530v293h338v-293h-338z" />
<glyph unicode="&#xd0;" horiz-adv-x="1669" d="M63 565v314h164v555h553q189 0 342 -52.5t255 -146.5t157 -224.5t55 -285.5v-4q0 -155 -55.5 -287t-158.5 -228.5t-258 -151t-345 -54.5h-545v565h-164zM612 342h174q184 0 290 98.5t106 274.5v4q0 174 -106 273.5t-290 99.5h-174v-213h244v-314h-244v-223z" />
<glyph unicode="&#xd1;" horiz-adv-x="1607" d="M127 0v1434h371l589 -758v758h394v-1434h-348l-613 786v-786h-393zM373 1567q33 157 92 231t162 74q69 0 181 -40t138 -40q40 0 61.5 21t43.5 73l186 -51q-33 -157 -92 -231t-162 -74q-69 0 -181 40t-138 40q-40 0 -61.5 -21t-43.5 -73z" />
<glyph unicode="&#xd2;" d="M78 713v4q0 152 59.5 289.5t161.5 237.5t246 159t307 59t306.5 -58t245 -157.5t160 -236.5t58.5 -289v-4q0 -152 -59.5 -290t-161.5 -238t-246 -159t-307 -59t-306.5 58.5t-245 158t-160 236.5t-58.5 289zM418 1792l362 117l213 -379h-274zM485 717q0 -159 104 -273 t263 -114q161 0 263 112t102 271v4q0 159 -104 273t-265 114q-159 0 -261 -112t-102 -271v-4z" />
<glyph unicode="&#xd3;" d="M78 713v4q0 152 59.5 289.5t161.5 237.5t246 159t307 59t306.5 -58t245 -157.5t160 -236.5t58.5 -289v-4q0 -152 -59.5 -290t-161.5 -238t-246 -159t-307 -59t-306.5 58.5t-245 158t-160 236.5t-58.5 289zM485 717q0 -159 104 -273t263 -114q161 0 263 112t102 271v4 q0 159 -104 273t-265 114q-159 0 -261 -112t-102 -271v-4zM711 1530l213 379l362 -117l-301 -262h-274z" />
<glyph unicode="&#xd4;" d="M78 713v4q0 152 59.5 289.5t161.5 237.5t246 159t307 59t306.5 -58t245 -157.5t160 -236.5t58.5 -289v-4q0 -152 -59.5 -290t-161.5 -238t-246 -159t-307 -59t-306.5 58.5t-245 158t-160 236.5t-58.5 289zM432 1526l262 338h316l262 -338h-250l-172 125l-172 -125h-246z M485 717q0 -159 104 -273t263 -114q161 0 263 112t102 271v4q0 159 -104 273t-265 114q-159 0 -261 -112t-102 -271v-4z" />
<glyph unicode="&#xd5;" d="M78 713v4q0 152 59.5 289.5t161.5 237.5t246 159t307 59t306.5 -58t245 -157.5t160 -236.5t58.5 -289v-4q0 -152 -59.5 -290t-161.5 -238t-246 -159t-307 -59t-306.5 58.5t-245 158t-160 236.5t-58.5 289zM420 1567q33 157 92 231t162 74q69 0 181 -40t138 -40 q40 0 61.5 21t43.5 73l186 -51q-33 -157 -92 -231t-162 -74q-69 0 -181 40t-138 40q-40 0 -61.5 -21t-43.5 -73zM485 717q0 -159 104 -273t263 -114q161 0 263 112t102 271v4q0 159 -104 273t-265 114q-159 0 -261 -112t-102 -271v-4z" />
<glyph unicode="&#xd6;" d="M78 713v4q0 152 59.5 289.5t161.5 237.5t246 159t307 59t306.5 -58t245 -157.5t160 -236.5t58.5 -289v-4q0 -152 -59.5 -290t-161.5 -238t-246 -159t-307 -59t-306.5 58.5t-245 158t-160 236.5t-58.5 289zM459 1530v293h338v-293h-338zM485 717q0 -159 104 -273t263 -114 q161 0 263 112t102 271v4q0 159 -104 273t-265 114q-159 0 -261 -112t-102 -271v-4zM907 1530v293h338v-293h-338z" />
<glyph unicode="&#xd8;" d="M61 -10l205 229q-90 99 -139 226t-49 268v4q0 152 59.5 289.5t161.5 237.5t246 159t307 59q228 0 405 -108l80 90h301l-202 -232q89 -98 137.5 -224t48.5 -267v-4q0 -152 -59.5 -290t-161.5 -238t-246 -159t-307 -59q-224 0 -406 109l-80 -90h-301zM479 717 q0 -111 49 -199l486 555q-73 39 -166 39q-162 0 -265.5 -114.5t-103.5 -276.5v-4zM686 360q74 -38 166 -38q163 0 267 114t104 277v4q0 110 -49 198z" />
<glyph unicode="&#xd9;" horiz-adv-x="1552" d="M109 629v805h403v-797q0 -151 70 -228t194 -77t194 74t70 221v807h404v-795q0 -171 -47 -299t-136 -208t-211.5 -119.5t-277.5 -39.5q-315 0 -489 163.5t-174 492.5zM360 1782l363 116l213 -378h-274z" />
<glyph unicode="&#xda;" horiz-adv-x="1552" d="M109 629v805h403v-797q0 -151 70 -228t194 -77t194 74t70 221v807h404v-795q0 -171 -47 -299t-136 -208t-211.5 -119.5t-277.5 -39.5q-315 0 -489 163.5t-174 492.5zM616 1520l213 378l363 -116l-301 -262h-275z" />
<glyph unicode="&#xdb;" horiz-adv-x="1552" d="M109 629v805h403v-797q0 -151 70 -228t194 -77t194 74t70 221v807h404v-795q0 -171 -47 -299t-136 -208t-211.5 -119.5t-277.5 -39.5q-315 0 -489 163.5t-174 492.5zM356 1530l262 338h316l262 -338h-250l-172 125l-172 -125h-246z" />
<glyph unicode="&#xdc;" horiz-adv-x="1552" d="M109 629v805h403v-797q0 -151 70 -228t194 -77t194 74t70 221v807h404v-795q0 -171 -47 -299t-136 -208t-211.5 -119.5t-277.5 -39.5q-315 0 -489 163.5t-174 492.5zM383 1530v293h338v-293h-338zM831 1530v293h338v-293h-338z" />
<glyph unicode="&#xdd;" horiz-adv-x="1480" d="M-4 1434h453l294 -523l297 523h445l-545 -891v-543h-399v537zM575 1526l213 379l363 -117l-301 -262h-275z" />
<glyph unicode="&#xde;" horiz-adv-x="1396" d="M127 0v1434h397v-205h217q275 0 435.5 -131.5t160.5 -366.5v-4q0 -166 -80.5 -283t-217.5 -173t-318 -56h-197v-215h-397zM524 532h189q105 0 166 51t61 136v4q0 91 -60 138.5t-169 47.5h-187v-377z" />
<glyph unicode="&#xdf;" horiz-adv-x="1300" d="M104 0v981q0 244 145.5 388t412.5 144q233 0 372.5 -122t139.5 -306v-4q0 -119 -58.5 -203.5t-154.5 -132.5q55 -18 102.5 -46t90 -69.5t67 -101.5t24.5 -131v-4q0 -199 -171.5 -306.5t-444.5 -92.5v278q109 6 170 49.5t61 116.5v4q0 71 -62.5 114t-168.5 52v207 q168 84 168 219v4q0 68 -40 109t-102 41q-74 0 -118.5 -52t-44.5 -147v-989h-388z" />
<glyph unicode="&#xe0;" horiz-adv-x="1226" d="M49 317v5q0 168 117 258t317 90q149 0 267 -43v18q0 180 -222 180q-152 0 -305 -61l-80 274q211 86 449 86q287 0 422 -135q119 -116 119 -352v-637h-385v115q-127 -140 -326 -140q-164 0 -268.5 90.5t-104.5 251.5zM215 1468l363 117l213 -379h-275zM424 340 q0 -56 38 -88.5t99 -32.5q86 0 139.5 50t53.5 132v52q-68 28 -152 28t-131 -37.5t-47 -99.5v-4z" />
<glyph unicode="&#xe1;" horiz-adv-x="1226" d="M49 317v5q0 168 117 258t317 90q149 0 267 -43v18q0 180 -222 180q-152 0 -305 -61l-80 274q211 86 449 86q287 0 422 -135q119 -116 119 -352v-637h-385v115q-127 -140 -326 -140q-164 0 -268.5 90.5t-104.5 251.5zM424 340q0 -56 38 -88.5t99 -32.5q86 0 139.5 50 t53.5 132v52q-68 28 -152 28t-131 -37.5t-47 -99.5v-4zM442 1206l213 379l363 -117l-301 -262h-275z" />
<glyph unicode="&#xe2;" horiz-adv-x="1226" d="M49 317v5q0 168 117 258t317 90q149 0 267 -43v18q0 180 -222 180q-152 0 -305 -61l-80 274q211 86 449 86q287 0 422 -135q119 -116 119 -352v-637h-385v115q-127 -140 -326 -140q-164 0 -268.5 90.5t-104.5 251.5zM188 1202l263 338h315l262 -338h-250l-172 125 l-172 -125h-246zM424 340q0 -56 38 -88.5t99 -32.5q86 0 139.5 50t53.5 132v52q-68 28 -152 28t-131 -37.5t-47 -99.5v-4z" />
<glyph unicode="&#xe3;" horiz-adv-x="1226" d="M49 317v5q0 168 117 258t317 90q149 0 267 -43v18q0 180 -222 180q-152 0 -305 -61l-80 274q211 86 449 86q287 0 422 -135q119 -116 119 -352v-637h-385v115q-127 -140 -326 -140q-164 0 -268.5 90.5t-104.5 251.5zM180 1239q33 157 92 231t162 74q69 0 181.5 -40 t138.5 -40q40 0 61 21.5t43 73.5l186 -52q-33 -157 -91.5 -231t-161.5 -74q-69 0 -181.5 40t-138.5 40q-40 0 -61 -21t-43 -73zM424 340q0 -56 38 -88.5t99 -32.5q86 0 139.5 50t53.5 132v52q-68 28 -152 28t-131 -37.5t-47 -99.5v-4z" />
<glyph unicode="&#xe4;" horiz-adv-x="1226" d="M49 317v5q0 168 117 258t317 90q149 0 267 -43v18q0 180 -222 180q-152 0 -305 -61l-80 274q211 86 449 86q287 0 422 -135q119 -116 119 -352v-637h-385v115q-127 -140 -326 -140q-164 0 -268.5 90.5t-104.5 251.5zM215 1206v293h338v-293h-338zM424 340q0 -56 38 -88.5 t99 -32.5q86 0 139.5 50t53.5 132v52q-68 28 -152 28t-131 -37.5t-47 -99.5v-4zM664 1206v293h337v-293h-337z" />
<glyph unicode="&#xe5;" horiz-adv-x="1226" d="M49 317v5q0 168 117 258t317 90q149 0 267 -43v18q0 180 -222 180q-152 0 -305 -61l-80 274q211 86 449 86q287 0 422 -135q119 -116 119 -352v-637h-385v115q-127 -140 -326 -140q-164 0 -268.5 90.5t-104.5 251.5zM336 1470v5q0 105 82 181.5t190 76.5t190.5 -76.5 t82.5 -181.5v-5q0 -104 -82.5 -182t-190.5 -78t-190 78t-82 182zM424 340q0 -56 38 -88.5t99 -32.5q86 0 139.5 50t53.5 132v52q-68 28 -152 28t-131 -37.5t-47 -99.5v-4zM471 1470q0 -56 40 -95.5t97 -39.5t97 39.5t40 95.5v5q0 54 -40 93.5t-97 39.5t-97 -39.5t-40 -93.5 v-5z" />
<glyph unicode="&#xe6;" horiz-adv-x="1925" d="M49 317v5q0 168 117 258t317 90q149 0 267 -43v18q0 180 -222 180q-152 0 -305 -61l-80 274q211 86 449 86q250 0 375 -125q140 134 346 134q109 0 199.5 -32t155 -88t109 -132.5t66 -166t21.5 -188.5q0 -26 -4 -80h-742q24 -89 86.5 -135.5t153.5 -46.5q70 0 127.5 27 t118.5 86l215 -178q-177 -226 -480 -226q-132 0 -243.5 43.5t-190.5 122.5q-216 -164 -444 -164q-116 0 -207.5 37.5t-148 116t-56.5 188.5zM424 340q0 -54 40 -85.5t103 -31.5q111 0 224 90q-31 74 -39 140q-68 28 -150 28q-84 0 -131 -37.5t-47 -99.5v-4zM1114 645h385 q-11 93 -63 147t-131 54q-76 0 -126.5 -54.5t-64.5 -146.5z" />
<glyph unicode="&#xe7;" horiz-adv-x="1165" d="M59 549v4q0 156 74.5 287.5t211.5 210.5t308 79q318 0 473 -247l-264 -197q-42 59 -90.5 88t-116.5 29q-93 0 -155 -72t-62 -174v-4q0 -108 62 -180t159 -72q65 0 114.5 28.5t98.5 86.5l261 -189q-74 -109 -174.5 -173t-243.5 -77l-117 -331l-309 131l166 225 q-178 57 -287 207t-109 340z" />
<glyph unicode="&#xe8;" horiz-adv-x="1239" d="M59 549v4q0 120 41.5 227t114.5 184.5t177.5 123t225.5 45.5q139 0 248 -48.5t176 -133t101.5 -192.5t34.5 -233q0 -53 -2 -80h-742q23 -89 85.5 -135.5t154.5 -46.5q130 0 246 113l215 -178q-177 -226 -482 -226q-262 0 -428 159.5t-166 416.5zM199 1468l362 117 l213 -379h-274zM428 645h385q-11 93 -62 147t-130 54q-75 0 -126.5 -54.5t-66.5 -146.5z" />
<glyph unicode="&#xe9;" horiz-adv-x="1239" d="M59 549v4q0 120 41.5 227t114.5 184.5t177.5 123t225.5 45.5q139 0 248 -48.5t176 -133t101.5 -192.5t34.5 -233q0 -53 -2 -80h-742q23 -89 85.5 -135.5t154.5 -46.5q130 0 246 113l215 -178q-177 -226 -482 -226q-262 0 -428 159.5t-166 416.5zM428 645h385 q-11 93 -62 147t-130 54q-75 0 -126.5 -54.5t-66.5 -146.5zM467 1206l213 379l362 -117l-301 -262h-274z" />
<glyph unicode="&#xea;" horiz-adv-x="1239" d="M59 549v4q0 120 41.5 227t114.5 184.5t177.5 123t225.5 45.5q139 0 248 -48.5t176 -133t101.5 -192.5t34.5 -233q0 -53 -2 -80h-742q23 -89 85.5 -135.5t154.5 -46.5q130 0 246 113l215 -178q-177 -226 -482 -226q-262 0 -428 159.5t-166 416.5zM201 1198l262 338h315 l262 -338h-249l-173 125l-172 -125h-245zM428 645h385q-11 93 -62 147t-130 54q-75 0 -126.5 -54.5t-66.5 -146.5z" />
<glyph unicode="&#xeb;" horiz-adv-x="1239" d="M59 549v4q0 120 41.5 227t114.5 184.5t177.5 123t225.5 45.5q139 0 248 -48.5t176 -133t101.5 -192.5t34.5 -233q0 -53 -2 -80h-742q23 -89 85.5 -135.5t154.5 -46.5q130 0 246 113l215 -178q-177 -226 -482 -226q-262 0 -428 159.5t-166 416.5zM227 1202v293h338v-293 h-338zM428 645h385q-11 93 -62 147t-130 54q-75 0 -126.5 -54.5t-66.5 -146.5zM676 1202v293h338v-293h-338z" />
<glyph unicode="&#xec;" horiz-adv-x="614" d="M-106 1464l364 117l213 -379h-274zM113 0v1108h389v-1108h-389z" />
<glyph unicode="&#xed;" horiz-adv-x="614" d="M113 0v1108h389v-1108h-389zM150 1202l212 379l363 -117l-301 -262h-274z" />
<glyph unicode="&#xee;" horiz-adv-x="614" d="M-111 1202l263 338h315l262 -338h-250l-172 125l-172 -125h-246zM113 0v1108h389v-1108h-389z" />
<glyph unicode="&#xef;" horiz-adv-x="614" d="M-84 1202v293h338v-293h-338zM113 0v1108h389v-1108h-389zM365 1202v293h337v-293h-337z" />
<glyph unicode="&#xf0;" horiz-adv-x="1343" d="M66 510v4q0 198 134.5 330.5t352.5 132.5q131 0 221 -55l-164 219l-235 -90l-133 182l239 82l-131 180h414l43 -61l203 75l131 -182l-211 -72l131 -184q110 -160 154.5 -276t44.5 -260v-5q0 -115 -43 -217t-120 -177.5t-191 -119t-249 -43.5q-258 0 -424.5 154.5 t-166.5 382.5zM440 510q0 -88 64 -149.5t162 -61.5q100 0 159.5 60t59.5 149v4q0 87 -62.5 148t-160.5 61q-100 0 -161 -59t-61 -148v-4z" />
<glyph unicode="&#xf1;" horiz-adv-x="1298" d="M104 0v1108h390v-156q142 181 331 181q176 0 276.5 -109t100.5 -299v-725h-389v600q0 89 -42.5 137.5t-113.5 48.5q-73 0 -118 -49t-45 -137v-600h-390zM227 1239q33 157 92 231t162 74q69 0 181.5 -40t138.5 -40q40 0 61 21.5t43 73.5l187 -52q-33 -157 -92 -231 t-162 -74q-69 0 -181.5 40t-138.5 40q-40 0 -61 -21t-43 -73z" />
<glyph unicode="&#xf2;" horiz-adv-x="1343" d="M59 549v4q0 117 46.5 223.5t127 185t195.5 125t246 46.5q173 0 313.5 -78t218.5 -210t78 -288v-4q0 -117 -46.5 -223.5t-126.5 -185t-195 -125t-246 -46.5q-130 0 -244.5 46t-194.5 123.5t-126 183.5t-46 223zM246 1468l362 117l213 -379h-274zM438 553 q0 -103 67.5 -176.5t168.5 -73.5q103 0 167 71.5t64 174.5v4q0 103 -67 176.5t-168 73.5q-103 0 -167.5 -71.5t-64.5 -174.5v-4z" />
<glyph unicode="&#xf3;" horiz-adv-x="1343" d="M59 549v4q0 117 46.5 223.5t127 185t195.5 125t246 46.5q173 0 313.5 -78t218.5 -210t78 -288v-4q0 -117 -46.5 -223.5t-126.5 -185t-195 -125t-246 -46.5q-130 0 -244.5 46t-194.5 123.5t-126 183.5t-46 223zM438 553q0 -103 67.5 -176.5t168.5 -73.5q103 0 167 71.5 t64 174.5v4q0 103 -67 176.5t-168 73.5q-103 0 -167.5 -71.5t-64.5 -174.5v-4zM522 1206l213 379l363 -117l-301 -262h-275z" />
<glyph unicode="&#xf4;" horiz-adv-x="1343" d="M59 549v4q0 117 46.5 223.5t127 185t195.5 125t246 46.5q173 0 313.5 -78t218.5 -210t78 -288v-4q0 -117 -46.5 -223.5t-126.5 -185t-195 -125t-246 -46.5q-130 0 -244.5 46t-194.5 123.5t-126 183.5t-46 223zM252 1198l262 338h315l263 -338h-250l-172 125l-172 -125 h-246zM438 553q0 -103 67.5 -176.5t168.5 -73.5q103 0 167 71.5t64 174.5v4q0 103 -67 176.5t-168 73.5q-103 0 -167.5 -71.5t-64.5 -174.5v-4z" />
<glyph unicode="&#xf5;" horiz-adv-x="1343" d="M59 549v4q0 117 46.5 223.5t127 185t195.5 125t246 46.5q173 0 313.5 -78t218.5 -210t78 -288v-4q0 -117 -46.5 -223.5t-126.5 -185t-195 -125t-246 -46.5q-130 0 -244.5 46t-194.5 123.5t-126 183.5t-46 223zM240 1239q33 157 92 231t162 74q69 0 181 -40t138 -40 q40 0 61.5 21.5t43.5 73.5l186 -52q-33 -157 -92 -231t-162 -74q-69 0 -181.5 40t-138.5 40q-40 0 -61 -21t-43 -73zM438 553q0 -103 67.5 -176.5t168.5 -73.5q103 0 167 71.5t64 174.5v4q0 103 -67 176.5t-168 73.5q-103 0 -167.5 -71.5t-64.5 -174.5v-4z" />
<glyph unicode="&#xf6;" horiz-adv-x="1343" d="M59 549v4q0 117 46.5 223.5t127 185t195.5 125t246 46.5q173 0 313.5 -78t218.5 -210t78 -288v-4q0 -117 -46.5 -223.5t-126.5 -185t-195 -125t-246 -46.5q-130 0 -244.5 46t-194.5 123.5t-126 183.5t-46 223zM279 1202v293h337v-293h-337zM438 553q0 -103 67.5 -176.5 t168.5 -73.5q103 0 167 71.5t64 174.5v4q0 103 -67 176.5t-168 73.5q-103 0 -167.5 -71.5t-64.5 -174.5v-4zM727 1202v293h338v-293h-338z" />
<glyph unicode="&#xf8;" horiz-adv-x="1343" d="M29 -10l170 188q-140 159 -140 371v4q0 117 46.5 223.5t127 185t195.5 125t246 46.5q169 0 309 -78l59 63h273q-129 -141 -170 -188q139 -158 139 -373v-4q0 -117 -46.5 -223.5t-126.5 -185t-195 -125t-246 -46.5q-169 0 -312 78l-57 -61h-272zM422 553q0 -52 20 -107 l320 355q-41 18 -92 18q-110 0 -179 -76.5t-69 -185.5v-4zM584 303q43 -16 90 -16q110 0 179 76.5t69 185.5v4q0 48 -21 106z" />
<glyph unicode="&#xf9;" horiz-adv-x="1298" d="M96 383v725h389v-600q0 -89 43 -137.5t115 -48.5q71 0 116.5 49t45.5 137v600h389v-1108h-389v152q-139 -177 -332 -177q-176 0 -276.5 109t-100.5 299zM256 1464l362 117l213 -379h-274z" />
<glyph unicode="&#xfa;" horiz-adv-x="1298" d="M96 383v725h389v-600q0 -89 43 -137.5t115 -48.5q71 0 116.5 49t45.5 137v600h389v-1108h-389v152q-139 -177 -332 -177q-176 0 -276.5 109t-100.5 299zM467 1202l213 379l362 -117l-301 -262h-274z" />
<glyph unicode="&#xfb;" horiz-adv-x="1298" d="M96 383v725h389v-600q0 -89 43 -137.5t115 -48.5q71 0 116.5 49t45.5 137v600h389v-1108h-389v152q-139 -177 -332 -177q-176 0 -276.5 109t-100.5 299zM229 1202l263 338h315l262 -338h-250l-172 125l-172 -125h-246z" />
<glyph unicode="&#xfc;" horiz-adv-x="1298" d="M96 383v725h389v-600q0 -89 43 -137.5t115 -48.5q71 0 116.5 49t45.5 137v600h389v-1108h-389v152q-139 -177 -332 -177q-176 0 -276.5 109t-100.5 299zM256 1202v293h338v-293h-338zM705 1202v293h337v-293h-337z" />
<glyph unicode="&#xfd;" horiz-adv-x="1282" d="M23 1108h407l221 -668l209 668h400l-406 -1081q-73 -197 -166 -279t-256 -82q-184 0 -356 96l121 273q99 -60 170 -60q58 0 90 45zM463 1202l213 379l362 -117l-301 -262h-274z" />
<glyph unicode="&#xfe;" horiz-adv-x="1384" d="M104 -328v1823h390v-534q67 81 144 126.5t191 45.5q99 0 188.5 -40.5t156.5 -113t107 -182t40 -238.5v-4q0 -131 -39.5 -241.5t-107 -184t-156.5 -114t-187 -40.5q-115 0 -194.5 43t-142.5 117v-463h-390zM485 553q0 -109 65.5 -180.5t160.5 -71.5q97 0 162 70.5 t65 181.5v4q0 108 -65.5 179t-161.5 71q-95 0 -160.5 -71t-65.5 -179v-4z" />
<glyph unicode="&#xff;" horiz-adv-x="1282" d="M23 1108h407l221 -668l209 668h400l-406 -1081q-73 -197 -166 -279t-256 -82q-184 0 -356 96l121 273q99 -60 170 -60q58 0 90 45zM246 1202v293h338v-293h-338zM694 1202v293h338v-293h-338z" />
<glyph unicode="&#x152;" horiz-adv-x="2207" d="M78 709v4q0 156 55.5 288t158.5 228.5t258 150.5t345 54h1225v-338h-715v-217h643v-314h-643v-227h725v-338h-1243q-188 0 -341 52.5t-255.5 146.5t-157.5 224.5t-55 285.5zM485 715q0 -169 108 -269t284 -100h135v741h-135q-177 0 -284.5 -98.5t-107.5 -269.5v-4z" />
<glyph unicode="&#x153;" horiz-adv-x="2074" d="M59 549v4q0 116 47 223t127 185.5t192.5 125t238.5 46.5q123 0 228.5 -44t180.5 -122q72 79 171 122.5t216 43.5q136 0 243.5 -48.5t174 -133t101 -192.5t34.5 -233q0 -26 -4 -80h-739q23 -89 84.5 -135.5t152.5 -46.5q70 0 129 27t119 86l215 -178q-182 -226 -475 -226 q-266 0 -426 166q-77 -78 -183.5 -122t-230.5 -44q-123 0 -234 46t-190 123.5t-125.5 184t-46.5 222.5zM438 553q0 -103 66 -176.5t164 -73.5q101 0 164 71.5t63 174.5v4q0 103 -66 176.5t-165 73.5q-100 0 -163 -72t-63 -174v-4zM1264 645h385q-11 93 -62.5 147t-130.5 54 q-76 0 -126.5 -54t-65.5 -147z" />
<glyph unicode="&#x178;" horiz-adv-x="1480" d="M-4 1434h453l294 -523l297 523h445l-545 -891v-543h-399v537zM348 1530v293h338v-293h-338zM797 1530v293h338v-293h-338z" />
<glyph unicode="&#x2c6;" horiz-adv-x="1024" d="M92 1202l262 338h316l262 -338h-250l-172 125l-172 -125h-246z" />
<glyph unicode="&#x2dc;" horiz-adv-x="1024" d="M80 1239q33 157 92 231t162 74q69 0 181 -40t138 -40q40 0 61.5 21.5t43.5 73.5l186 -52q-33 -157 -92 -231t-162 -74q-69 0 -181 40t-138 40q-40 0 -61.5 -21t-43.5 -73z" />
<glyph unicode="&#x2000;" horiz-adv-x="954" />
<glyph unicode="&#x2001;" horiz-adv-x="1909" />
<glyph unicode="&#x2002;" horiz-adv-x="954" />
<glyph unicode="&#x2003;" horiz-adv-x="1909" />
<glyph unicode="&#x2004;" horiz-adv-x="636" />
<glyph unicode="&#x2005;" horiz-adv-x="477" />
<glyph unicode="&#x2006;" horiz-adv-x="318" />
<glyph unicode="&#x2007;" horiz-adv-x="318" />
<glyph unicode="&#x2008;" horiz-adv-x="238" />
<glyph unicode="&#x2009;" horiz-adv-x="381" />
<glyph unicode="&#x200a;" horiz-adv-x="106" />
<glyph unicode="&#x2010;" horiz-adv-x="835" d="M82 469v342h672v-342h-672z" />
<glyph unicode="&#x2011;" horiz-adv-x="835" d="M82 469v342h672v-342h-672z" />
<glyph unicode="&#x2012;" horiz-adv-x="835" d="M82 469v342h672v-342h-672z" />
<glyph unicode="&#x2013;" horiz-adv-x="1081" d="M82 473v334h917v-334h-917z" />
<glyph unicode="&#x2014;" horiz-adv-x="1839" d="M82 473v334h1675v-334h-1675z" />
<glyph unicode="&#x2018;" horiz-adv-x="581" d="M82 702v326q0 217 108 313.5t312 102.5l33 -150q-104 -12 -156.5 -61t-48.5 -131h155v-400h-403z" />
<glyph unicode="&#x2019;" horiz-adv-x="581" d="M47 842q103 11 156 60t49 132h-156v400h404v-326q0 -217 -108 -313.5t-312 -102.5z" />
<glyph unicode="&#x201a;" horiz-adv-x="581" d="M41 -193q103 12 155.5 61t49.5 132h-158v399h406v-325q0 -217 -109 -313.5t-313 -102.5z" />
<glyph unicode="&#x201c;" horiz-adv-x="1120" d="M82 702v326q0 214 107 312t309 104l30 -150q-207 -24 -198 -192h151v-400h-399zM625 702v326q0 214 107 312t308 104l33 -150q-207 -24 -201 -192h152v-400h-399z" />
<glyph unicode="&#x201d;" horiz-adv-x="1120" d="M47 842q102 10 153 59t48 133h-152v400h400v-326q0 -215 -107 -312.5t-309 -103.5zM592 842q102 10 153 59t48 133h-154v400h399v-326q0 -215 -106 -312.5t-307 -103.5z" />
<glyph unicode="&#x201e;" horiz-adv-x="1118" d="M41 -193q208 24 199 193h-152v399h399v-325q0 -215 -106.5 -312.5t-308.5 -103.5zM586 -193q207 24 198 193h-151v399h399v-325q0 -215 -107 -312.5t-309 -103.5z" />
<glyph unicode="&#x2022;" horiz-adv-x="1024" d="M166 719v4q0 142 101.5 243t244.5 101t244.5 -101t101.5 -243v-4q0 -142 -101.5 -243t-244.5 -101t-244.5 101t-101.5 243z" />
<glyph unicode="&#x2026;" horiz-adv-x="1720" d="M88 0v393h397v-393h-397zM662 0v393h397v-393h-397zM1235 0v393h397v-393h-397z" />
<glyph unicode="&#x202f;" horiz-adv-x="381" />
<glyph unicode="&#x2039;" horiz-adv-x="731" d="M61 500v98l328 438l281 -137l-267 -350l267 -348l-281 -140z" />
<glyph unicode="&#x203a;" horiz-adv-x="731" d="M61 199l267 350l-267 348l281 139l328 -438v-98l-328 -439z" />
<glyph unicode="&#x205f;" horiz-adv-x="477" />
<glyph unicode="&#x2122;" horiz-adv-x="1423" d="M33 1280v154h553v-154h-189v-477h-176v477h-188zM684 803v631h186l150 -244l151 244h185v-631h-174v368l-160 -249h-6l-160 249v-368h-172z" />
<glyph unicode="&#x25fc;" horiz-adv-x="1105" d="M0 0v1106h1106v-1106h-1106z" />
<glyph unicode="&#xfb01;" horiz-adv-x="1441" d="M45 797v305h129v24q0 193 94 287q96 96 289 96q152 0 254 -30v-275q-74 23 -145 23q-111 0 -111 -105v-26h254v-299h-248v-797h-387v797h-129zM932 1208v287h405v-287h-405zM940 0v1108h389v-1108h-389z" />
<glyph unicode="&#xfb02;" horiz-adv-x="1441" d="M45 797v305h129v24q0 193 94 287q96 96 289 96q152 0 254 -30v-275q-74 23 -145 23q-111 0 -111 -105v-26h254v-299h-248v-797h-387v797h-129zM940 0v1495h389v-1495h-389z" />
</font>
</defs>
</svg>
